<?xml version="1.0" encoding="utf-8"?>
<!-- Generator: Adobe Illustrator 15.1.0, SVG Export Plug-In . SVG Version: 6.00 Build 0)  -->
<!DOCTYPE svg PUBLIC "-//W3C//DTD SVG 1.1//EN" "http://www.w3.org/Graphics/SVG/1.1/DTD/svg11.dtd">
<svg version="1.1"
	 id="svg2" sodipodi:docname="noir.svg" inkscape:version="0.91 r13725" xmlns:sodipodi="http://sodipodi.sourceforge.net/DTD/sodipodi-0.dtd" xmlns:inkscape="http://www.inkscape.org/namespaces/inkscape" xmlns:svg="http://www.w3.org/2000/svg" xmlns:rdf="http://www.w3.org/1999/02/22-rdf-syntax-ns#" xmlns:cc="http://creativecommons.org/ns#" xmlns:dc="http://purl.org/dc/elements/1.1/"
	 xmlns="http://www.w3.org/2000/svg" xmlns:xlink="http://www.w3.org/1999/xlink" x="0px" y="0px" width="362.829px"
	 height="170.449px" viewBox="0.039 -0.026 362.829 170.449" enable-background="new 0.039 -0.026 362.829 170.449"
	 xml:space="preserve">
<sodipodi:namedview  bordercolor="#666666" id="base" pagecolor="#ffffff" borderopacity="1.0" inkscape:pageopacity="0.0" inkscape:window-y="-8" inkscape:cy="109.91888" inkscape:pageshadow="2" inkscape:zoom="1.4" inkscape:cx="12.428637" fit-margin-top="0" inkscape:document-units="px" inkscape:current-layer="layer1" showgrid="false" inkscape:showpageshadow="false" borderlayer="true" fit-margin-left="0" fit-margin-right="0" fit-margin-bottom="0" inkscape:window-width="1920" inkscape:window-height="1018" inkscape:window-x="1912" inkscape:window-maximized="1">
	</sodipodi:namedview>
<path id="path4172" fill="#1D1D1B" d="M7.758-0.026L0.039,7.692l75.147,75.146h7.719V75.12L7.758-0.026z"/>
<path id="path4170" fill="#967D4D" d="M162.769-0.026L87.622,75.119v7.72h7.717l75.148-75.146L162.769-0.026z"/>
<path id="path4168" fill="#1D1D1B" d="M75.185,87.556L0.039,162.704l7.719,7.719l75.147-75.149v-7.717H75.185z"/>
<path id="rect4147" fill="#967D4D" d="M87.622,87.556v7.719l75.146,75.147l7.719-7.719L95.341,87.556H87.622L87.622,87.556z"/>
<g id="text4174">
	<path id="path4163" fill="#1D1D1B" d="M214.429,109.117c0,10.629-1.858,18.473-5.573,23.53c-3.715,5.058-10.011,7.586-18.887,7.586
		c-15.79,0-24.046-9.03-24.769-27.091c0-1.032,0.413-1.6,1.239-1.703l9.133-1.703c1.135-0.207,1.703,0.258,1.703,1.394
		c0.31,6.501,1.496,11.094,3.56,13.777c2.167,2.58,5.264,3.871,9.289,3.871s6.966-1.238,8.823-3.716
		c1.961-2.477,2.941-7.276,2.941-14.397c0-2.993-0.154-5.573-0.464-7.74c-0.31-2.167-0.877-3.973-1.702-5.418
		c-0.826-1.548-1.961-2.838-3.406-3.87c-1.342-1.032-3.045-1.961-5.109-2.787l-6.346-2.477c-3.613-1.342-6.606-2.838-8.979-4.489
		c-2.374-1.754-4.283-3.715-5.728-5.883c-1.342-2.271-2.322-4.902-2.941-7.895c-0.516-3.096-0.774-6.657-0.774-10.682
		c0-18.164,7.843-27.246,23.53-27.246c7.947,0,13.778,2.116,17.494,6.347c3.818,4.231,5.934,10.475,6.347,18.731
		c-0.001,1.032-0.465,1.6-1.394,1.703l-8.669,1.394c-0.517,0.206-0.929,0.206-1.239,0c-0.309-0.31-0.464-0.723-0.464-1.239
		c-0.206-5.263-1.238-9.133-3.096-11.61c-1.755-2.58-4.645-3.87-8.669-3.87c-3.922,0-6.812,1.238-8.669,3.715
		c-1.858,2.374-2.787,6.244-2.787,11.61c0,2.684,0.155,5.005,0.464,6.966c0.413,1.858,1.032,3.458,1.858,4.799
		c0.825,1.341,1.909,2.477,3.251,3.405c1.445,0.929,3.25,1.806,5.418,2.632l6.348,2.477c3.405,1.341,6.243,2.838,8.514,4.489
		c2.373,1.651,4.283,3.664,5.729,6.038c1.444,2.271,2.477,5.005,3.096,8.205C214.12,101.067,214.429,104.783,214.429,109.117
		L214.429,109.117z"/>
	<path id="path4165" fill="#1D1D1B" d="M278.454,141.007c-0.723,0.825-1.445,0.877-2.168,0.155l-7.121-6.348
		c-4.23,3.611-9.598,5.418-16.1,5.418c-5.986,0-10.939-1.342-14.861-4.025c-3.818-2.683-6.553-6.553-8.205-11.609
		c-0.412-1.136-0.773-2.374-1.083-3.716c-0.206-1.342-0.413-3.302-0.619-5.882c-0.104-2.684-0.206-6.296-0.31-10.837
		c0-4.541,0-10.526,0-17.957s0-13.417,0-17.958c0.104-4.541,0.206-8.102,0.31-10.682c0.206-2.683,0.413-4.696,0.619-6.038
		c0.31-1.342,0.671-2.58,1.083-3.715c1.652-5.057,4.387-8.927,8.205-11.61c3.922-2.683,8.875-4.025,14.861-4.025
		s10.939,1.342,14.861,4.025s6.656,6.553,8.205,11.61c0.412,1.135,0.723,2.374,0.929,3.715c0.31,1.342,0.517,3.354,0.619,6.038
		c0.206,2.58,0.31,6.141,0.31,10.682c0.104,4.541,0.154,10.527,0.154,17.958c0,7.946-0.051,14.242-0.154,18.886
		s-0.31,8.309-0.619,10.991c-0.207,2.683-0.516,4.696-0.929,6.038c-0.413,1.341-0.878,2.734-1.394,4.18l8.051,6.656
		c0.824,0.619,0.928,1.342,0.309,2.167L278.454,141.007z M253.065,128.623c1.857,0,3.354-0.155,4.49-0.464
		c1.238-0.311,2.321-0.723,3.25-1.238l-8.205-7.121c-0.722-0.723-0.773-1.497-0.154-2.322l4.18-4.954
		c0.619-0.723,1.342-0.774,2.168-0.155l6.191,5.729c0.104-0.93,0.207-2.219,0.311-3.871c0.103-1.65,0.154-3.715,0.154-6.191
		c0.104-2.58,0.154-5.625,0.154-9.134c0-3.612,0-7.843,0-12.694c0-7.328-0.051-13.107-0.154-17.338c0-4.334-0.052-7.637-0.154-9.908
		c-0.104-2.374-0.259-4.025-0.465-4.954c-0.104-0.929-0.31-1.806-0.619-2.632c-0.826-2.374-2.219-4.18-4.18-5.418
		c-1.857-1.342-4.18-2.013-6.967-2.013c-2.786,0-5.16,0.671-7.121,2.013c-1.857,1.238-3.199,3.044-4.025,5.418
		c-0.309,0.826-0.566,1.703-0.773,2.632c-0.104,0.929-0.206,2.58-0.31,4.954c-0.103,2.271-0.206,5.573-0.31,9.908
		c0,4.231,0,10.011,0,17.338c0,7.327,0,13.158,0,17.493c0.104,4.231,0.207,7.534,0.31,9.907c0.104,2.271,0.206,3.922,0.31,4.955
		c0.207,0.928,0.465,1.805,0.773,2.631c0.826,2.374,2.168,4.231,4.025,5.573C247.905,128.003,250.279,128.623,253.065,128.623
		L253.065,128.623z"/>
	<path id="path4167" fill="#1D1D1B" d="M294.999,35.12c0-1.032,0.516-1.548,1.548-1.548h9.442c1.033,0,1.549,0.516,1.549,1.548
		v91.181c0,0.619,0.309,0.928,0.93,0.928h27.555c1.031,0,1.547,0.517,1.547,1.549v8.514c0,1.032-0.516,1.549-1.547,1.549h-39.476
		c-1.032,0-1.548-0.517-1.548-1.549V35.12z"/>
	<path id="path4169" fill="#1D1D1B" d="M350.329,35.12c0-1.032,0.516-1.548,1.549-1.548h9.443c1.031,0,1.547,0.516,1.547,1.548
		v102.171c0,1.032-0.516,1.549-1.547,1.549h-9.443c-1.033,0-1.549-0.517-1.549-1.549V35.12z"/>
</g>
</svg>
